<svg id="title" width="980" height="99" viewBox="0 0 980 99" version="1.1" xmlns="http://www.w3.org/2000/svg" style="">
    <path class="hui-char dRVrWQsv_0" fill="none" stroke="#d4ecc9" stroke-width="1" opacity="1.00" d=" M 56.64 24.65 C 60.56 21.44 62.73 16.52 66.93 13.69 C 66.71 15.02 66.47 16.35 66.20 17.68 C 74.50 27.97 85.46 35.77 97.05 41.95 C 99.39 43.24 102.15 44.16 103.63 46.56 C 88.57 41.40 75.18 30.94 64.94 18.76 C 56.42 28.12 46.61 36.30 35.69 42.71 C 32.50 44.44 29.52 47.01 25.73 47.11 C 36.15 39.88 47.79 34.03 56.64 24.65 Z"></path>
    <path class="hui-char dRVrWQsv_1" fill="none" stroke="#d4ecc9" stroke-width="1" opacity="1.00" d=" M 42.98 43.01 C 57.43 43.06 71.90 42.87 86.36 43.09 C 86.35 43.55 86.35 44.45 86.35 44.91 C 71.90 45.13 57.44 44.94 42.98 44.99 C 42.98 44.50 42.98 43.50 42.98 43.01 Z"></path>
    <path class="hui-char dRVrWQsv_2" fill="none" stroke="#d4ecc9" stroke-width="1" opacity="1.00" d=" M 29.11 58.85 C 52.75 58.75 76.38 58.81 100.02 58.82 L 100.02 60.18 C 86.53 60.43 72.98 59.78 59.53 60.49 C 53.62 68.62 47.16 76.38 39.54 83.00 C 55.66 82.39 71.79 82.12 87.91 81.71 C 83.75 76.57 77.14 72.99 74.71 66.77 C 80.51 71.43 85.44 77.06 90.85 82.15 C 92.88 84.35 95.91 86.09 96.28 89.34 C 93.86 87.77 91.78 85.75 89.89 83.57 C 71.03 83.86 52.17 84.01 33.33 85.03 C 42.95 78.73 50.81 69.68 57.48 60.24 C 48.04 60.12 38.59 60.28 29.15 60.15 L 29.11 58.85 Z"></path>
    <path class="yi-char dRVrWQsv_3" fill="none" stroke="#d4ecc9" stroke-width="1" opacity="1.00" d=" M 153.49 13.37 C 157.73 15.36 158.18 20.77 160.62 24.36 C 161.56 27.31 165.26 30.41 163.17 33.51 C 159.78 26.89 155.88 20.43 153.49 13.37 Z"></path>
    <path class="yi-char dRVrWQsv_4" fill="none" stroke="#d4ecc9" stroke-width="1" opacity="1.00" d=" M 116.23 16.57 C 116.71 16.08 117.20 15.60 117.68 15.11 C 121.42 20.74 127.09 25.19 129.56 31.56 C 124.29 27.38 120.98 21.29 116.23 16.57 Z"></path>
    <path class="yi-char dRVrWQsv_5" fill="none" stroke="#d4ecc9" stroke-width="1" opacity="1.00" d=" M 180.24 21.66 C 181.16 22.28 181.88 23.10 181.37 24.25 C 178.13 40.04 171.83 55.55 160.89 67.61 C 167.68 74.47 175.16 80.76 183.81 85.15 C 185.67 86.18 188.16 86.91 188.40 89.42 C 177.74 84.42 167.73 77.54 159.92 68.67 C 150.58 77.19 139.96 84.24 128.67 89.88 C 128.71 87.80 130.75 87.10 132.27 86.23 C 140.99 81.71 149.27 76.20 156.37 69.39 C 156.98 68.60 158.66 67.58 157.56 66.49 C 147.66 53.84 141.48 38.56 138.28 22.91 C 138.67 22.89 139.47 22.86 139.86 22.84 C 143.52 38.34 149.31 53.72 159.79 65.97 C 171.20 53.82 176.56 37.58 180.24 21.66 Z"></path>
    <path class="yi-char dRVrWQsv_6" fill="none" stroke="#d4ecc9" stroke-width="1" opacity="1.00" d=" M 109.61 41.82 C 114.10 39.76 119.23 41.19 124.00 40.83 C 124.02 53.58 123.97 66.32 124.02 79.07 C 128.67 75.66 132.24 70.53 137.73 68.47 C 133.31 74.16 127.56 79.31 121.17 82.71 C 123.02 69.34 121.54 55.65 121.97 42.16 C 117.85 42.25 113.71 42.35 109.61 41.82 Z"></path>
    <path class="shi-char dRVrWQsv_7" fill="none" stroke="#d4ecc9" stroke-width="1" opacity="1.00" d=" M 231.11 14.00 C 231.49 13.80 232.25 13.39 232.62 13.19 C 234.53 16.94 236.90 20.47 238.28 24.47 C 234.28 22.42 233.57 17.41 231.11 14.00 Z"></path>
    <path class="shi-char dRVrWQsv_8" fill="none" stroke="#d4ecc9" stroke-width="1" opacity="1.00" d=" M 199.07 25.06 C 222.69 24.96 246.31 24.96 269.93 25.06 C 270.04 29.33 270.04 33.61 269.92 37.88 C 269.46 37.88 268.53 37.88 268.06 37.88 C 268.03 34.25 267.95 30.63 268.00 27.00 C 245.67 27.00 223.33 27.00 201.00 27.00 C 201.05 30.63 200.97 34.25 200.93 37.88 C 200.47 37.88 199.54 37.88 199.08 37.89 C 198.96 33.61 198.96 29.33 199.07 25.06 Z"></path>
    <path class="shi-char dRVrWQsv_9" fill="none" stroke="#d4ecc9" stroke-width="1" opacity="1.00" d=" M 206.36 37.97 C 225.18 38.09 244.01 37.87 262.84 38.09 C 262.84 38.54 262.84 39.46 262.84 39.91 C 252.02 40.32 241.13 39.54 230.35 40.28 C 224.05 45.52 217.55 50.52 210.77 55.14 C 225.98 55.11 241.20 55.02 256.42 54.74 C 252.97 50.59 246.75 48.92 244.65 43.81 C 251.91 49.34 260.66 53.98 266.20 61.15 C 262.45 60.23 260.19 55.85 256.01 56.55 C 238.44 57.08 220.85 56.77 203.28 57.31 C 211.55 52.34 220.40 47.00 227.57 40.04 C 220.70 39.84 213.82 40.21 206.96 39.90 C 206.81 39.42 206.51 38.45 206.36 37.97 Z"></path>
    <path class="shi-char dRVrWQsv_10" fill="none" stroke="#d4ecc9" stroke-width="1" opacity="1.00" d=" M 234.01 58.90 C 234.50 58.90 235.50 58.90 235.99 58.90 C 235.98 62.27 236.02 65.63 236.00 69.00 C 246.67 69.01 257.34 68.98 268.01 69.01 C 268.01 69.50 268.01 70.50 268.01 70.99 C 257.34 71.02 246.67 70.99 236.00 71.00 C 235.99 75.33 235.99 79.67 236.00 84.00 C 248.67 84.01 261.34 83.98 274.01 84.01 C 274.01 84.50 274.01 85.50 274.01 85.99 C 248.06 85.95 222.11 86.12 196.17 85.90 C 196.17 85.45 196.17 84.55 196.17 84.10 C 208.78 83.87 221.39 84.06 234.00 84.00 C 234.01 79.67 234.01 75.33 234.00 71.00 C 223.33 70.99 212.66 71.02 201.99 70.99 C 201.99 70.50 201.99 69.50 201.99 69.01 C 212.66 68.98 223.33 69.01 234.00 69.00 C 233.98 65.63 234.02 62.27 234.01 58.90 Z"></path>
    <path class="guan-char dRVrWQsv_11" fill="none" stroke="#d4ecc9" stroke-width="1" opacity="1.00" d=" M 291.67 23.60 C 294.55 20.32 295.85 15.74 299.52 13.17 C 298.96 16.55 296.74 19.24 294.89 22.00 C 303.64 22.01 312.39 21.99 321.14 22.01 C 321.15 22.50 321.15 23.50 321.15 23.99 C 312.12 24.14 303.08 23.75 294.07 24.14 C 289.09 27.61 286.77 35.20 280.37 36.57 C 283.61 31.81 288.51 28.46 291.67 23.60 Z"></path>
    <path class="guan-char dRVrWQsv_12" fill="none" stroke="#d4ecc9" stroke-width="1" opacity="1.00" d=" M 321.87 30.27 C 326.05 24.90 328.63 18.18 333.46 13.46 C 332.66 16.48 331.25 19.27 329.75 21.99 C 339.17 22.02 348.59 21.98 358.01 22.01 C 358.01 22.50 358.01 23.50 358.01 23.99 C 348.11 24.07 338.21 23.88 328.32 24.09 C 326.50 26.40 325.30 30.15 321.87 30.27 Z"></path>
    <path class="guan-char dRVrWQsv_13" fill="none" stroke="#d4ecc9" stroke-width="1" opacity="1.00" d=" M 299.47 25.42 C 303.54 26.43 306.41 30.06 308.54 33.47 C 304.56 32.19 301.79 28.72 299.47 25.42 Z"></path>
    <path class="guan-char dRVrWQsv_14" fill="none" stroke="#d4ecc9" stroke-width="1" opacity="1.00" d=" M 334.73 25.72 C 338.88 26.73 342.10 30.04 344.49 33.42 C 340.38 32.30 337.15 29.10 334.73 25.72 Z"></path>
    <path class="guan-char dRVrWQsv_15" fill="none" stroke="#d4ecc9" stroke-width="1" opacity="1.00" d=" M 315.90 30.70 C 319.70 31.38 320.34 36.11 322.29 38.88 C 333.17 39.19 344.05 38.85 354.94 39.06 C 355.01 42.74 355.02 46.43 354.99 50.11 C 354.49 50.11 353.51 50.11 353.01 50.11 C 353.00 47.07 352.99 44.04 352.99 41.00 C 330.66 41.00 308.34 41.00 286.01 41.00 C 286.00 44.04 285.99 47.07 285.99 50.11 C 285.49 50.11 284.51 50.11 284.01 50.11 C 283.97 46.43 283.99 42.74 284.06 39.06 C 296.12 38.92 308.18 39.05 320.24 38.99 C 318.68 36.29 317.20 33.54 315.90 30.70 Z"></path>
    <path class="guan-char dRVrWQsv_16" fill="none" stroke="#d4ecc9" stroke-width="1" opacity="1.00" d=" M 294.06 49.06 C 310.68 48.96 327.31 48.96 343.94 49.06 C 344.03 53.69 344.03 58.31 343.94 62.94 C 327.96 63.08 311.97 62.96 295.99 63.00 C 296.01 65.67 296.01 68.33 295.99 71.00 C 312.72 71.00 329.45 70.99 346.17 71.00 C 346.21 77.66 346.22 84.32 346.17 90.98 L 344.85 90.98 C 344.83 89.33 344.81 87.67 344.79 86.02 C 328.54 85.97 312.28 86.02 296.03 86.00 C 296.00 87.71 295.98 89.42 295.97 91.13 C 295.48 91.13 294.50 91.13 294.01 91.13 C 294.02 77.10 293.93 63.08 294.06 49.06 M 296.00 51.00 C 296.00 54.33 296.00 57.67 296.00 61.00 C 311.33 61.00 326.67 61.00 342.00 61.00 C 342.00 57.67 342.00 54.33 342.00 51.00 C 326.67 51.00 311.33 51.00 296.00 51.00 M 296.00 73.00 C 295.99 76.67 295.99 80.33 296.00 84.00 C 312.28 83.98 328.55 84.04 344.82 83.97 C 344.80 80.32 344.80 76.68 344.82 73.03 C 328.55 72.96 312.28 73.02 296.00 73.00 Z"></path>
    <path class="li-char dRVrWQsv_17" fill="none" stroke="#d4ecc9" stroke-width="1" opacity="1.00" d=" M 397.00 19.83 C 410.67 19.78 424.33 19.78 438.00 19.83 C 437.97 31.87 438.07 43.90 437.94 55.94 C 431.29 56.06 424.65 55.98 418.00 56.00 C 417.99 60.33 417.99 64.67 418.00 69.00 C 424.95 69.03 431.91 68.92 438.86 69.08 C 438.86 69.54 438.86 70.46 438.86 70.92 C 431.91 71.08 424.96 70.97 418.00 71.00 C 417.99 75.33 417.99 79.67 418.00 84.00 C 426.35 84.10 434.71 83.82 443.05 84.10 C 443.21 84.58 443.51 85.55 443.66 86.03 C 425.76 85.89 407.85 86.17 389.96 85.90 C 389.81 85.42 389.51 84.45 389.35 83.97 C 398.23 84.03 407.11 83.99 416.00 84.00 C 416.00 79.67 416.00 75.33 416.00 71.00 C 409.04 70.97 402.09 71.08 395.14 70.92 C 395.14 70.46 395.14 69.54 395.14 69.08 C 402.09 68.92 409.04 69.03 416.00 69.00 C 416.00 64.67 416.00 60.33 415.99 56.00 C 409.68 55.98 403.37 56.05 397.06 55.94 C 396.93 43.90 397.03 31.86 397.00 19.83 M 399.03 21.17 C 398.98 26.45 398.99 31.72 399.00 37.00 C 404.67 37.00 410.33 37.00 416.00 37.00 C 416.00 31.72 416.02 26.45 415.97 21.17 C 410.32 21.21 404.67 21.21 399.03 21.17 M 418.03 21.17 C 417.98 26.45 418.00 31.72 418.00 37.00 C 424.00 37.00 430.00 37.00 436.00 37.00 C 436.00 31.72 436.02 26.45 435.97 21.17 C 429.99 21.21 424.01 21.21 418.03 21.17 M 399.00 39.00 C 398.99 44.00 398.99 49.00 399.00 54.00 C 404.67 54.00 410.33 54.00 416.00 54.00 C 416.00 49.00 416.00 44.00 416.00 39.00 C 410.33 39.00 404.67 39.00 399.00 39.00 M 418.00 39.00 C 417.99 44.00 417.99 49.00 418.00 54.00 C 424.00 54.00 430.00 54.00 436.00 54.00 C 436.00 49.00 436.00 44.00 436.00 39.00 C 430.00 39.00 424.00 39.00 418.00 39.00 Z"></path>
    <path class="li-char dRVrWQsv_18" fill="none" stroke="#d4ecc9" stroke-width="1" opacity="1.00" d=" M 365.62 23.09 C 373.86 22.92 382.13 22.93 390.37 23.09 C 389.91 27.11 382.43 24.09 379.00 24.99 C 379.00 33.00 379.00 41.00 379.00 49.01 C 382.13 49.85 389.17 46.96 389.38 50.91 C 385.92 51.13 382.46 51.00 379.00 50.99 C 379.02 59.87 378.96 68.75 379.04 77.62 C 383.42 76.77 387.81 76.00 392.22 75.30 C 392.36 77.72 389.67 77.43 388.03 77.88 C 380.41 79.12 372.82 80.49 365.21 81.80 C 365.12 81.36 364.95 80.48 364.87 80.03 C 368.90 79.31 372.95 78.64 376.99 77.94 C 377.01 68.96 377.00 59.97 377.00 50.99 C 373.65 50.14 367.35 53.10 366.30 48.96 C 369.86 49.02 373.43 48.99 377.00 49.00 C 377.00 41.00 377.00 32.99 377.00 24.99 C 373.56 24.09 366.12 27.11 365.62 23.09 Z"></path>
    <path class="xi-char dRVrWQsv_19" fill="none" stroke="#d4ecc9" stroke-width="1" opacity="1.00" d=" M 457.94 22.29 C 479.90 21.72 501.84 20.46 523.76 19.16 C 523.81 19.59 523.89 20.46 523.93 20.90 C 500.70 22.38 477.45 23.79 454.17 24.13 C 454.56 22.25 456.51 22.42 457.94 22.29 Z"></path>
    <path class="xi-char dRVrWQsv_20" fill="none" stroke="#d4ecc9" stroke-width="1" opacity="1.00" d=" M 461.82 41.74 C 472.05 36.93 480.88 29.75 490.30 23.61 C 490.01 26.76 486.71 27.90 484.57 29.63 C 478.43 34.21 471.71 37.89 465.42 42.23 C 475.93 41.97 486.51 42.17 496.96 40.97 C 502.57 38.57 507.59 34.82 512.44 31.13 C 512.94 31.70 513.46 32.26 514.00 32.81 C 498.63 43.60 481.97 52.32 465.42 61.09 C 481.67 60.83 497.91 59.86 514.16 59.39 C 510.54 55.08 503.86 53.28 501.83 47.90 C 509.93 53.38 518.16 59.34 524.70 66.60 C 521.05 66.11 519.13 62.52 515.89 61.26 C 507.93 61.21 499.98 62.23 492.01 62.03 C 491.76 69.24 492.48 76.52 491.63 83.69 C 490.70 89.07 484.15 88.71 480.00 88.83 C 477.81 88.47 474.26 89.94 473.49 87.03 C 478.76 86.21 486.27 89.09 489.82 83.89 C 490.29 76.62 489.87 69.30 489.98 62.01 C 478.72 62.60 467.39 62.39 456.20 63.75 C 456.12 63.36 455.98 62.56 455.90 62.17 C 469.72 58.33 481.89 50.11 494.22 43.00 C 481.95 43.51 469.60 43.48 457.41 44.94 C 458.11 43.02 460.17 42.54 461.82 41.74 Z"></path>
    <path class="xi-char dRVrWQsv_21" fill="none" stroke="#d4ecc9" stroke-width="1" opacity="1.00" d=" M 461.74 77.70 C 466.23 75.28 469.61 70.92 474.60 69.47 C 468.28 76.74 459.33 82.19 450.35 85.59 C 453.09 81.71 458.12 80.58 461.74 77.70 Z"></path>
    <path class="xi-char dRVrWQsv_22" fill="none" stroke="#d4ecc9" stroke-width="1" opacity="1.00" d=" M 506.77 72.19 C 505.28 71.72 504.45 69.09 506.79 70.21 C 512.52 73.31 517.82 77.17 523.45 80.46 C 525.30 81.73 528.04 82.58 528.22 85.22 C 520.77 81.41 513.93 76.51 506.77 72.19 Z"></path>
    <path class="tong-char dRVrWQsv_23" fill="none" stroke="#d4ecc9" stroke-width="1" opacity="1.00" d=" M 584.06 12.65 C 586.42 17.09 588.40 21.71 590.28 26.37 C 587.03 26.42 586.88 22.54 585.55 20.38 C 584.88 17.89 581.88 15.09 584.06 12.65 Z"></path>
    <path class="tong-char dRVrWQsv_24" fill="none" stroke="#d4ecc9" stroke-width="1" opacity="1.00" d=" M 553.31 13.98 C 553.77 13.85 554.67 13.59 555.13 13.46 C 551.01 23.66 545.20 33.02 539.34 42.28 C 544.15 41.97 549.00 42.21 553.80 41.74 C 557.18 38.95 557.75 33.88 561.52 31.44 C 557.18 43.18 548.78 52.90 541.75 63.13 C 548.08 63.87 555.57 60.02 561.11 63.22 C 553.28 64.29 545.37 64.81 537.48 65.27 C 543.11 58.43 548.22 51.18 552.86 43.64 C 547.05 43.96 541.24 44.00 535.44 44.30 C 542.53 34.90 547.88 24.37 553.31 13.98 Z"></path>
    <path class="tong-char dRVrWQsv_25" fill="none" stroke="#d4ecc9" stroke-width="1" opacity="1.00" d=" M 563.16 27.09 C 579.22 26.94 595.30 26.90 611.36 27.09 C 611.36 27.55 611.35 28.45 611.35 28.91 C 602.30 29.17 593.24 28.90 584.18 29.02 C 578.59 37.27 572.50 45.16 566.10 52.80 C 578.62 52.02 591.18 52.17 603.69 51.33 C 600.32 45.80 594.71 41.64 592.54 35.44 C 599.88 41.94 605.48 50.42 611.36 58.27 C 608.24 58.16 606.91 54.99 605.13 52.94 C 601.04 53.04 596.96 53.24 592.90 53.69 C 593.26 63.43 592.67 73.20 593.18 82.93 C 594.71 87.94 601.19 85.52 605.07 86.00 C 612.05 86.39 610.95 77.74 611.23 73.11 C 611.66 72.82 612.51 72.25 612.94 71.96 C 612.90 77.37 613.87 86.16 606.92 87.69 C 601.71 88.02 592.83 89.89 591.30 82.92 C 590.58 73.20 591.21 63.40 591.00 53.65 C 586.74 53.71 582.48 53.85 578.23 54.06 C 580.24 69.04 572.06 85.46 557.42 90.53 C 561.30 85.73 567.37 83.12 570.80 77.83 C 576.05 71.08 576.40 62.14 576.50 53.95 C 571.33 53.62 566.07 55.45 561.02 54.17 C 569.98 47.76 575.45 37.69 581.99 29.02 C 575.71 28.96 569.43 29.09 563.16 28.91 C 563.16 28.46 563.16 27.55 563.16 27.09 Z"></path>
    <path class="tong-char dRVrWQsv_26" fill="none" stroke="#d4ecc9" stroke-width="1" opacity="1.00" d=" M 535.23 81.99 C 543.78 78.44 553.75 79.19 562.84 77.25 C 562.93 77.69 563.11 78.58 563.20 79.02 C 553.89 80.14 544.58 81.31 535.23 81.99 Z"></path>
<style data-made-with="vivus-instant">.dRVrWQsv_0{stroke-dasharray:203 205;stroke-dashoffset:204;animation:dRVrWQsv_draw 2800ms ease-in-out 0ms forwards;}.dRVrWQsv_1{stroke-dasharray:91 93;stroke-dashoffset:92;animation:dRVrWQsv_draw 2800ms ease-in-out 7ms forwards;}.dRVrWQsv_2{stroke-dasharray:373 375;stroke-dashoffset:374;animation:dRVrWQsv_draw 2800ms ease-in-out 15ms forwards;}.dRVrWQsv_3{stroke-dasharray:46 48;stroke-dashoffset:47;animation:dRVrWQsv_draw 2800ms ease-in-out 23ms forwards;}.dRVrWQsv_4{stroke-dasharray:43 45;stroke-dashoffset:44;animation:dRVrWQsv_draw 2800ms ease-in-out 30ms forwards;}.dRVrWQsv_5{stroke-dasharray:347 349;stroke-dashoffset:348;animation:dRVrWQsv_draw 2800ms ease-in-out 38ms forwards;}.dRVrWQsv_6{stroke-dasharray:146 148;stroke-dashoffset:147;animation:dRVrWQsv_draw 2800ms ease-in-out 46ms forwards;}.dRVrWQsv_7{stroke-dasharray:28 30;stroke-dashoffset:29;animation:dRVrWQsv_draw 2800ms ease-in-out 53ms forwards;}.dRVrWQsv_8{stroke-dasharray:189 191;stroke-dashoffset:190;animation:dRVrWQsv_draw 2800ms ease-in-out 61ms forwards;}.dRVrWQsv_9{stroke-dasharray:322 324;stroke-dashoffset:323;animation:dRVrWQsv_draw 2800ms ease-in-out 69ms forwards;}.dRVrWQsv_10{stroke-dasharray:338 340;stroke-dashoffset:339;animation:dRVrWQsv_draw 2800ms ease-in-out 76ms forwards;}.dRVrWQsv_11{stroke-dasharray:115 117;stroke-dashoffset:116;animation:dRVrWQsv_draw 2800ms ease-in-out 84ms forwards;}.dRVrWQsv_12{stroke-dasharray:100 102;stroke-dashoffset:101;animation:dRVrWQsv_draw 2800ms ease-in-out 92ms forwards;}.dRVrWQsv_13{stroke-dasharray:25 27;stroke-dashoffset:26;animation:dRVrWQsv_draw 2800ms ease-in-out 100ms forwards;}.dRVrWQsv_14{stroke-dasharray:26 28;stroke-dashoffset:27;animation:dRVrWQsv_draw 2800ms ease-in-out 107ms forwards;}.dRVrWQsv_15{stroke-dasharray:201 203;stroke-dashoffset:202;animation:dRVrWQsv_draw 2800ms ease-in-out 115ms forwards;}.dRVrWQsv_16{stroke-dasharray:526 528;stroke-dashoffset:527;animation:dRVrWQsv_draw 2800ms ease-in-out 123ms forwards;}.dRVrWQsv_17{stroke-dasharray:664 666;stroke-dashoffset:665;animation:dRVrWQsv_draw 2800ms ease-in-out 130ms forwards;}.dRVrWQsv_18{stroke-dasharray:252 254;stroke-dashoffset:253;animation:dRVrWQsv_draw 2800ms ease-in-out 138ms forwards;}.dRVrWQsv_19{stroke-dasharray:143 145;stroke-dashoffset:144;animation:dRVrWQsv_draw 2800ms ease-in-out 146ms forwards;}.dRVrWQsv_20{stroke-dasharray:507 509;stroke-dashoffset:508;animation:dRVrWQsv_draw 2800ms ease-in-out 153ms forwards;}.dRVrWQsv_21{stroke-dasharray:59 61;stroke-dashoffset:60;animation:dRVrWQsv_draw 2800ms ease-in-out 161ms forwards;}.dRVrWQsv_22{stroke-dasharray:56 58;stroke-dashoffset:57;animation:dRVrWQsv_draw 2800ms ease-in-out 169ms forwards;}.dRVrWQsv_23{stroke-dasharray:32 34;stroke-dashoffset:33;animation:dRVrWQsv_draw 2800ms ease-in-out 176ms forwards;}.dRVrWQsv_24{stroke-dasharray:223 225;stroke-dashoffset:224;animation:dRVrWQsv_draw 2800ms ease-in-out 184ms forwards;}.dRVrWQsv_25{stroke-dasharray:513 515;stroke-dashoffset:514;animation:dRVrWQsv_draw 2800ms ease-in-out 192ms forwards;}.dRVrWQsv_26{stroke-dasharray:59 61;stroke-dashoffset:60;animation:dRVrWQsv_draw 2800ms ease-in-out 200ms forwards;}@keyframes dRVrWQsv_draw{100%{stroke-dashoffset:0;}}@keyframes dRVrWQsv_fade{0%{stroke-opacity:1;}94.44444444444444%{stroke-opacity:1;}100%{stroke-opacity:0;}}</style></svg>
