<?xml version="1.0" encoding="utf-8"?><svg xmlns="http://www.w3.org/2000/svg" xmlns:xlink="http://www.w3.org/1999/xlink" width="1536" height="722" preserveAspectRatio="xMidYMid" viewBox="0 0 1536 722" style="z-index:1;margin-right:-2px;display:block;background-repeat-y:initial;background-repeat-x:initial;background-color:rgb(255, 255, 255);animation-play-state:paused" ><g transform="" style="animation-play-state:paused" ><linearGradient id="lg-0.005269730663057803" x1="0" x2="1" y1="0" y2="0" style="animation-play-state:paused" ><stop stop-color="#00ffbf" offset="0" style="animation-play-state:paused" ></stop>

  
<stop stop-color="#379266" offset="1" style="animation-play-state:paused" ></stop></linearGradient>
<path fill="url(#lg-0.005269730663057803)" opacity="0.4" d="M 0 0 L 0 709.653 Q 192 581.365 384 534.619 T 768 534.046 T 1152 474.412 T 1536 331.746 L 1536 0 Z" style="opacity:0.4;animation-play-state:paused" ></path>
<path fill="url(#lg-0.005269730663057803)" opacity="0.4" d="M 0 0 L 0 647.98 Q 192 644.147 384 603.798 T 768 486.265 T 1152 404.747 T 1536 318.554 L 1536 0 Z" style="opacity:0.4;animation-play-state:paused" ></path>
<path fill="url(#lg-0.005269730663057803)" opacity="0.4" d="M 0 0 L 0 698.95 Q 192 577.302 384 547.44 T 768 445.674 T 1152 456.248 T 1536 268.615 L 1536 0 Z" style="opacity:0.4;animation-play-state:paused" ></path>
<path fill="url(#lg-0.005269730663057803)" opacity="0.4" d="M 0 0 L 0 662.279 Q 192 569.814 384 550.516 T 768 487.085 T 1152 350.166 T 1536 329.768 L 1536 0 Z" style="opacity:0.4;animation-play-state:paused" ></path>
<path fill="url(#lg-0.005269730663057803)" opacity="0.4" d="M 0 0 L 0 669.274 Q 192 567.076 384 534.199 T 768 521.884 T 1152 422.533 T 1536 295.228 L 1536 0 Z" style="opacity:0.4;animation-play-state:paused" ></path></g></svg>